<svg width="36" height="36" viewBox="0 0 36 36" fill="none" xmlns="http://www.w3.org/2000/svg">
<path d="M12 18L12 12C12 8.68629 14.6863 6 18 6V6C21.3137 6 24 8.68629 24 12L24 18" stroke="#F58634" stroke-width="2" stroke-linecap="round"/>
<path d="M5.69435 17.1678C5.83942 15.4269 5.91196 14.5565 6.48605 14.0282C7.06013 13.5 7.9336 13.5 9.68053 13.5H26.3195C28.0664 13.5 28.9399 13.5 29.514 14.0282C30.088 14.5565 30.1606 15.4269 30.3057 17.1678L31.3195 29.3339C31.404 30.3474 31.4462 30.8542 31.1491 31.1771C30.852 31.5 30.3435 31.5 29.3264 31.5H6.6736C5.65655 31.5 5.14802 31.5 4.85092 31.1771C4.55382 30.8542 4.59605 30.3474 4.68051 29.3339L5.69435 17.1678Z" fill="#F58634"/>
</svg>
