<svg width="24" height="24" viewBox="0 0 24 24" fill="none" xmlns="http://www.w3.org/2000/svg">
<path d="M21.9667 14.1955L21.9697 14.1945L18.686 7.02986L19.4823 6.63353L19.1843 6.03686L18.408 6.42353L18.303 6.19453C18.2262 6.02719 18.0284 5.95374 17.8611 6.03045C17.7885 6.06374 17.7303 6.12194 17.697 6.19453L17.6033 6.39919C17.0383 6.13678 16.423 6.00061 15.8 6.0002H13V5.33353H13.6667V4.66686H13.0937L13.3333 3.70786C13.5173 2.97149 13.0696 2.22536 12.3332 2.04132C11.5968 1.85732 10.8507 2.30507 10.6667 3.04145C10.612 3.2602 10.612 3.48907 10.6667 3.70782L10.9063 4.66682H10.3333V5.33349H11V6.00015H8.20167C7.57809 6.00065 6.96209 6.13715 6.39667 6.40015L6.303 6.19549C6.2263 6.02815 6.02842 5.95469 5.86109 6.0314C5.7885 6.06469 5.7303 6.1229 5.697 6.19549L5.592 6.42449L4.81567 6.03615L4.51767 6.63349L5.314 7.03149L2.03034 14.1945C2.01009 14.2381 1.99975 14.2855 2 14.3335C2.00146 15.6216 3.0453 16.6654 4.33334 16.6669H7.66667C8.95471 16.6654 9.99854 15.6216 10 14.3335C9.99917 14.2857 9.98779 14.2385 9.96667 14.1955L6.674 7.00386C7.15263 6.78169 7.674 6.66669 8.20167 6.66686H11V18.8622L9.862 20.0002H8.66667C7.74667 20.0013 7.00109 20.7469 7 21.6669C7 21.8509 7.14925 22.0002 7.33334 22.0002H16.6667C16.8508 22.0002 17 21.8509 17 21.6669C16.9989 20.7469 16.2533 20.0013 15.3333 20.0002H14.138L13 18.8622V6.66686H15.8C16.3277 6.66669 16.849 6.78169 17.3277 7.00386L14.0303 14.1945C14.0101 14.2381 13.9998 14.2855 14 14.3335C14.0015 15.6216 15.0453 16.6654 16.3333 16.6669H19.6667C20.9547 16.6654 21.9985 15.6216 22 14.3335C21.9992 14.2857 21.9878 14.2385 21.9667 14.1955ZM7.66667 16.0002H4.33334C3.54159 15.9993 2.85938 15.4424 2.7 14.6669H9.3C9.14067 15.4424 8.45842 15.9993 7.66667 16.0002ZM9.14734 14.0002H2.85267L5.91467 7.31986C5.97059 7.33486 6.02942 7.33486 6.08534 7.31986L9.14734 14.0002ZM11.4423 2.93886C11.7019 2.63086 12.162 2.59165 12.47 2.85124C12.5017 2.8779 12.531 2.90724 12.5577 2.93886C12.6925 3.11036 12.7401 3.3347 12.6867 3.5462L12.4063 4.66686H11.5937L11.3133 3.5462C11.2599 3.3347 11.3075 3.11036 11.4423 2.93886ZM11.6667 6.0002V5.33353H12.3333V6.0002H11.6667ZM12.3333 6.66686V18.6669H11.6667V6.66686H12.3333ZM15.3333 20.6669C15.757 20.6674 16.1345 20.9343 16.2763 21.3335H7.72367C7.86546 20.9343 8.243 20.6674 8.66667 20.6669H15.3333ZM13.1953 20.0002H10.8047L11.4713 19.3335H12.5287L13.1953 20.0002ZM17.914 7.32086C17.969 7.34024 18.0294 7.33774 18.0827 7.31386L21.1473 14.0002H14.8527L17.914 7.32086ZM19.6667 16.0002H16.3333C15.5416 15.9993 14.8594 15.4424 14.7 14.6669H21.3C21.1407 15.4424 20.4584 15.9993 19.6667 16.0002Z" fill="black"/>
</svg>
