<svg width="24" height="24" viewBox="0 0 24 24" fill="none" xmlns="http://www.w3.org/2000/svg">
<rect width="24" height="24" fill="white"/>
<path d="M10.8874 3.36667C12.3315 3.36535 13.7435 3.79236 14.9448 4.5937C16.1462 5.39503 17.0829 6.53467 17.6364 7.86845C18.19 9.20224 18.3355 10.6702 18.0546 12.0867C17.7737 13.5032 17.0789 14.8046 16.0583 15.8262C15.0376 16.8478 13.7369 17.5437 12.3207 17.8259C10.9044 18.1081 9.43628 17.9639 8.10199 17.4116C6.7677 16.8593 5.62721 15.9236 4.82478 14.723C4.02235 13.5224 3.59404 12.1108 3.59404 10.6667C3.60279 8.73444 4.3738 6.88374 5.73948 5.51681C7.10516 4.14988 8.95515 3.37719 10.8874 3.36667ZM10.8874 2C9.17327 2 7.49766 2.50829 6.07243 3.4606C4.64721 4.4129 3.53638 5.76645 2.88042 7.35008C2.22446 8.9337 2.05283 10.6763 2.38723 12.3574C2.72164 14.0386 3.54706 15.5829 4.75911 16.7949C5.97117 18.007 7.51542 18.8324 9.19659 19.1668C10.8778 19.5012 12.6203 19.3296 14.204 18.6736C15.7876 18.0177 17.1411 16.9068 18.0934 15.4816C19.0457 14.0564 19.554 12.3808 19.554 10.6667C19.554 8.36812 18.6409 6.16372 17.0156 4.53841C15.3903 2.91309 13.1859 2 10.8874 2Z" fill="#6D6D6D"/>
<path d="M23.3327 22.1933L18.4193 17.2466L17.4727 18.1866L22.386 23.1333C22.4477 23.1954 22.5211 23.2448 22.6019 23.2786C22.6827 23.3124 22.7694 23.33 22.857 23.3303C22.9446 23.3306 23.0314 23.3136 23.1124 23.2804C23.1935 23.2472 23.2672 23.1983 23.3293 23.1366C23.3915 23.0749 23.4409 23.0015 23.4747 22.9207C23.5085 22.8399 23.5261 22.7532 23.5264 22.6656C23.5267 22.578 23.5097 22.4912 23.4765 22.4102C23.4433 22.3291 23.3944 22.2554 23.3327 22.1933Z" fill="#6D6D6D"/>
</svg>
